<svg id="Layer_1" data-name="Layer 1" xmlns="http://www.w3.org/2000/svg" viewBox="0 0 165.48 106.46"><defs><style>.cls-1{fill:#231f20;}</style></defs><title>KWpiano</title><path class="cls-1" d="M85.69,74.95q1.57,0,1.57,1.12,0,4.57-12.57,26.12a36,36,0,0,0,1.65,4.72l22.3-17q12.8-9.73,17.29-12.5,10-6,19.68-6a14,14,0,0,1,5.09.9,1.94,1.94,0,0,1,1.42,1.95q0,1.42-.75,1.42a1.3,1.3,0,0,1-.94-.6q-.49-.6-2.84-.6a39.93,39.93,0,0,0-7.67,1.2q-8.38,1.87-19,8.38Q104.25,88.2,93.1,96.73T77,108.48a65.65,65.65,0,0,0,9.8,14.89q9.21,10.7,16.54,10.7,3.59,0,3.59-2.77a5,5,0,0,0-.11-1,2,2,0,0,1,.26-1.27q.37-.75.9-.75,1,0,1.27,2.32a3.88,3.88,0,0,1,.07.75,4.54,4.54,0,0,1-2.43,3.93,10.59,10.59,0,0,1-5.76,1.53,13.16,13.16,0,0,1-5.58-1q-5.91-2.92-11.94-10.25a58.15,58.15,0,0,1-9.24-15.42,17.38,17.38,0,0,1-6.81,2.62,81.44,81.44,0,0,1-12.35,12.65,35.51,35.51,0,0,1-8.61,5.43,22,22,0,0,1-8.91,2.06q-6.06,0-9.36-3t-3.29-9.24a13.51,13.51,0,0,1,1.2-5.69q3.82-8.46,11.53-11.68a21,21,0,0,1,8.5-1.87q4.23,0,5.65,2.77a4.29,4.29,0,0,1,.52,2.06,2.12,2.12,0,0,1-.3,1.38q-.3.3-.82-.52-1.8-3.29-3.82-3.67-1.35-.15-1.95-.15-5.84,0-10.93,4.86-6.59,6.36-6.59,13.77,0,8.08,9.13,9.13h.6q3.29,0,8.46-2.92,8.38-4.79,17.89-16.47a6,6,0,0,1-1.72-4.64,8.91,8.91,0,0,1,2.28-5.8A7.71,7.71,0,0,1,71,98.37a9.33,9.33,0,0,1,2.1.22Q76.79,92.31,80.31,85t3.52-8.42-.45-.15a36,36,0,0,0-5.2,2.36,67.78,67.78,0,0,0-6.77,3.7,35.89,35.89,0,0,0-4.94,4.23q-2.92,2.88-2.92,4.68,0,.82,1.16,1.65t4.23.82q.37.15.37.41t-2.06.6a21.36,21.36,0,0,1-3.26.34q-2.69,0-2.69-2.25,0-2.62,3.22-6.29a26.12,26.12,0,0,1,7-5.76Q82.7,74.95,85.69,74.95ZM71,102a5.12,5.12,0,0,0-2-.37A2.94,2.94,0,0,0,66.8,103a4.52,4.52,0,0,0-1.08,2.88,4,4,0,0,0,.82,2.58Q70.2,103.24,71,102Zm2.84,6.44a23,23,0,0,1-1-3q-1.5,2.17-3,4.27a7.33,7.33,0,0,0,1.35-.11A13.39,13.39,0,0,0,73.79,108.48Z" transform="translate(-25.07 -71.43)"/><path class="cls-1" d="M143.85,125.09q0,5,5,5,6.74,0,16.24-9.73a70.17,70.17,0,0,0,13.14-17.7q4.53-9,4.53-13.73a7.64,7.64,0,0,0-.15-1.5,4.9,4.9,0,0,1-3.37-1.72v.07A2.45,2.45,0,0,1,178.13,84a1.88,1.88,0,0,1,.75-1.53,3,3,0,0,1,1.95-.6,1.74,1.74,0,0,1,1.68.94,6.79,6.79,0,0,0,1.24,1.68q.75.75.67,1a1.55,1.55,0,0,0,1.38.67,3.73,3.73,0,0,0,2.13-.9,3.61,3.61,0,0,1,1.91-.9q.71,0,.71.45,0,.82-1.42,1.57a3.15,3.15,0,0,1-1.8.67h-2.4a18.19,18.19,0,0,1,.9,4.42q0,6-5.73,15.57a65.52,65.52,0,0,1-14.71,17q-9.06,7.63-16.43,7.63t-7.37-7.18q0-5.69,4.79-16.24l5.39-11.75-7.33,5.69q-3.44,2.85-7,6.25t-12.39,14l-8.68,10.63q-2.1,2.4-3.74,2.4-1.27,0-1.27-1.65a10,10,0,0,1,1.35-4.27l14.45-20.81q13.1-19.23,13.1-24.4,0-2.84-5.24-2.84-6.36,0-17.74,7.78A44.4,44.4,0,0,0,106.5,99.83q-4.64,6.33-4.64,10.48t5.54,4.15q5.17,0,10.63-4.79a9.14,9.14,0,0,1,2.25-1.65c.2,0,.27.18.22.52q-.82,2.84-6.1,5.43a21.73,21.73,0,0,1-9.32,2.58,8.7,8.7,0,0,1-1.42-.08h-.07q-6-1.27-6-5.91t5.16-11.15a54.78,54.78,0,0,1,23.5-17.14q7.41-2.84,12.2-2.84,5.91,0,5.91,3.89,0,8.08-20.36,35.1-6.81,9.06-6.89,9.06.22,0,7.82-8.46a174.6,174.6,0,0,1,14.41-14.45q2.62-2.32,9.06-8.53a53.63,53.63,0,0,1,7.26-5.69,5.4,5.4,0,0,1,2.81-.6,2.76,2.76,0,0,1,2.51,1,98.85,98.85,0,0,0-12,19.12Q143.85,120.53,143.85,125.09Z" transform="translate(-25.07 -71.43)"/><path class="cls-1" d="M77.16,157.9a4.45,4.45,0,0,1-3.45,2.22A7.67,7.67,0,0,1,69,158.61l-2.22-1.44L63,163l-1-.65,9.18-14.11,3.51,2.28Q79.8,153.85,77.16,157.9Zm-9.83-1.59,2,1.28a7.23,7.23,0,0,0,4,1.49,3.51,3.51,0,0,0,2.74-1.85,3.42,3.42,0,0,0,.55-3.08A6.16,6.16,0,0,0,74,151.32l-2.37-1.55Z" transform="translate(-25.07 -71.43)"/><path class="cls-1" d="M79.9,172.13,86,156.44l1.11.43L81,172.56Z" transform="translate(-25.07 -71.43)"/><path class="cls-1" d="M100.87,171.42,94,170.3l-3.32,5.48-1.31-.21L98.91,160l.75.12,3.92,17.77-1.33-.22Zm-6.26-2.1,6,1L99.33,164q-.17-.75-.37-2.07a18,18,0,0,1-1,1.86Z" transform="translate(-25.07 -71.43)"/><path class="cls-1" d="M126.79,176.08l-1.19.17-12.16-13.35h-.09q.52,2.63.71,4l1.56,10.8-1.14.16-2.4-16.66,1.18-.17,12.15,13.32h.07q-.4-2-.67-3.88l-1.57-10.87,1.15-.17Z" transform="translate(-25.07 -71.43)"/><path class="cls-1" d="M148.61,157.77a9.29,9.29,0,0,1,1.16,6.55,7.92,7.92,0,0,1-9.92,5.25,9.33,9.33,0,0,1-4.77-4.67,9.19,9.19,0,0,1-1.14-6.55,7.13,7.13,0,0,1,3.88-4.66,7.05,7.05,0,0,1,6-.57A9.31,9.31,0,0,1,148.61,157.77Zm-12.37,6.54a8.52,8.52,0,0,0,4.06,4.17,6.64,6.64,0,0,0,8.34-4.39,8.53,8.53,0,0,0-1.18-5.72,8.44,8.44,0,0,0-4-4.17,6.66,6.66,0,0,0-8.31,4.41A8.37,8.37,0,0,0,136.24,164.31Z" transform="translate(-25.07 -71.43)"/></svg>